Coordinates
version=1
nRows=24
nColumns=26
inDegrees=yes

Units are S.I. units (second, meters, Newtons, ...)
If the header above contains a line with 'inDegrees', this indicates whether rotational values are in degrees (yes) or radians (no).

endheader
time	pelvis_tilt	pelvis_list	pelvis_rotation	pelvis_tx	pelvis_ty	pelvis_tz	hip_flexion_r	hip_adduction_r	hip_rotation_r	knee_angle_r	knee_angle_r_beta	hip_flexion_l	hip_adduction_l	hip_rotation_l	knee_angle_l	knee_angle_l_beta	lumbar_extension	lumbar_bending	lumbar_rotation	ankle_angle_r	subtalar_angle_r	mtp_angle_r	ankle_angle_l	subtalar_angle_l	mtp_angle_l
      0.68000000	     -3.26369042	     -6.17216822	     -5.70594517	     -0.55615075	      0.85360244	      0.30049159	     -6.18116597	      8.67060712	      3.47546490	     19.41599215	      0.33887299	     35.60070652	     -7.31022408	     12.56669648	     14.78745742	      0.25808982	     -6.54378977	      8.60676155	      9.28555183	     24.25960299	     -0.22708893	      0.00000000	      2.67668878	     -2.06107064	      0.00000000
      0.69000000	     -3.14414908	     -6.03404256	     -5.85008366	     -0.54347764	      0.85278625	      0.29892605	     -6.87300594	      8.21537153	      3.56581927	     20.02418553	      0.34948797	     35.46528548	     -7.02024531	     12.10274524	     15.83516454	      0.27637576	     -6.53945785	      8.43102206	      9.16956073	     23.67733630	     -0.09886249	      0.00000000	      2.54016449	     -2.89367151	      0.00000000
      0.70000000	     -3.01745717	     -5.86389993	     -6.00063631	     -0.53054999	      0.85203807	      0.29743207	     -7.50474065	      7.71924980	      3.58660123	     20.76819330	      0.36247335	     35.28710280	     -6.71579462	     11.37001511	     17.05919996	      0.29773921	     -6.49670674	      8.17493823	      9.05273821	     23.09494561	     -0.04132627	      0.00000000	      2.11803693	     -3.90635820	      0.00000000
      0.71000000	     -2.94498792	     -5.69955854	     -6.07150870	     -0.51739232	      0.85135623	      0.29585663	     -8.01399717	      7.24620089	      3.62574635	     21.62674569	      0.37745792	     35.07167597	     -6.39352297	     10.66297428	     18.22455770	      0.31807854	     -6.32520036	      7.90944503	      8.91376213	     22.35791617	      0.02827630	      0.00000000	      1.42007722	     -4.78069845	      0.00000000
      0.72000000	     -3.31722398	     -5.39496915	     -6.33343887	     -0.50428974	      0.85026630	      0.29444968	     -7.67667837	      6.61410486	      3.49156165	     23.18363337	      0.40463073	     35.19466130	     -6.00950954	     10.03467620	     19.08845690	      0.33315642	     -5.60391873	      7.52683899	      8.91381859	     21.88894884	      0.20435678	      0.00000000	     -0.44230436	     -6.84910199	      0.00000000
      0.73000000	     -3.50517533	     -5.21835731	     -6.20067800	     -0.49096622	      0.84953872	      0.29263820	     -7.61807661	      6.18086097	      3.26148820	     24.50047180	      0.42761390	     35.19793414	     -5.56016608	      9.68646435	     20.05011333	      0.34994049	     -5.05932722	      7.26106164	      8.49817710	     20.71595014	      0.06815567	      0.00000000	     -1.91540414	     -8.04000349	      0.00000000
      0.74000000	     -3.75126182	     -5.07420453	     -5.96995688	     -0.47761545	      0.84890924	      0.29064499	     -7.33902050	      5.79196827	      2.91892384	     26.05508521	      0.45474702	     35.22495273	     -5.06841507	      9.61950039	     20.87639523	      0.36436183	     -4.42708272	      7.03284524	      8.10489062	     19.28998046	     -0.04708275	      0.00000000	     -3.54759208	     -9.37636070	      0.00000000
      0.75000000	     -3.63453401	     -4.87399770	     -5.62986335	     -0.46402504	      0.84900359	      0.28858621	     -7.44938047	      5.32810579	      2.69130265	     27.52422680	      0.48038838	     34.85559546	     -4.53718051	      9.30864308	     21.74540431	      0.37952890	     -4.21331976	      6.66186152	      7.74707710	     17.44300320	     -0.02627175	      0.00000000	     -4.23205463	     -9.58536752	      0.00000000
      0.76000000	     -4.15648564	     -4.46528463	     -5.23209358	     -0.45066985	      0.84833859	      0.28623061	     -6.29647543	      4.58576694	      1.60074745	     29.95610164	      0.52283260	     35.18460791	     -3.71075581	      9.33708747	     22.44406919	      0.39172290	     -3.17372243	      6.14948011	      7.07018408	     15.59772529	     -0.27948672	      0.00000000	     -5.66891765	    -10.87492418	      0.00000000
      0.77000000	     -4.09757988	     -3.97360646	     -4.72407921	     -0.43705804	      0.84865565	      0.28372773	     -5.80291141	      3.66958872	      0.56127103	     32.19030241	      0.56182676	     34.81729132	     -2.75656446	      9.30333443	     23.18914875	      0.40472700	     -2.83443704	      5.44795657	      6.55038621	     13.23939994	     -0.44585605	      0.00000000	     -6.06689960	    -11.36407171	      0.00000000
      0.78000000	     -4.07442155	     -3.39254265	     -4.15426312	     -0.42356864	      0.84900440	      0.28102241	     -5.01183044	      2.55486849	     -0.72149900	     34.79899701	      0.60735707	     34.47988713	     -1.62395462	      9.58031382	     23.98820492	      0.41867316	     -2.46609660	      4.66024201	      5.94636428	     10.75174535	     -0.30384137	      0.00000000	     -6.25844756	    -12.02648521	      0.00000000
      0.79000000	     -3.83215344	     -2.69526043	     -3.57759949	     -0.41012906	      0.84976663	      0.27822102	     -4.31956459	      1.22329157	     -2.08665140	     37.50649311	      0.65461180	     33.84535337	     -0.36756003	      9.81819821	     24.81194947	      0.43305021	     -2.38340985	      3.75661296	      5.48556789	      7.90447286	     -0.39284974	      0.00000000	     -5.91579150	    -12.48511811	      0.00000000
      0.80000000	     -3.37502539	     -2.12626108	     -3.11291853	     -0.39710211	      0.85092931	      0.27550434	     -3.70471051	      0.01315929	     -3.04208075	     40.29091304	      0.70320909	     32.93002686	      0.74337307	     10.27028068	     25.67009878	      0.44802774	     -2.69699084	      3.02974218	      5.12564509	      4.83674648	     -0.29902224	      0.00000000	     -5.23030392	    -12.87809274	      0.00000000
      0.81000000	     -3.23105530	     -0.96670912	     -2.37406559	     -0.38397219	      0.85159195	      0.27250555	     -2.57123885	     -2.04296569	     -4.93005769	     43.37082363	      0.75696367	     32.29229319	      2.52325327	     10.47545492	     26.36094028	      0.46008520	     -2.51710507	      1.54315107	      4.45735686	      1.86221467	     -0.87160522	      0.00000000	     -4.53473012	    -13.16796818	      0.00000000
      0.82000000	     -2.93091990	     -0.05453888	     -1.79347185	     -0.37144466	      0.85259975	      0.26972106	     -1.51137129	     -3.77333538	     -6.17375455	     46.39105055	      0.80967658	     31.39234544	      3.99563132	     10.83830860	     26.95066863	      0.47037790	     -2.70758268	      0.41116577	      3.95907527	     -1.07748053	     -1.46279067	      0.00000000	     -3.66373499	    -13.43210875	      0.00000000
      0.83000000	     -2.65241759	      0.83541930	     -1.26769754	     -0.35934458	      0.85369077	      0.26706933	     -0.33807669	     -5.43871759	     -7.14528738	     49.34904559	      0.86130333	     30.41722998	      5.40222549	     11.18965938	     27.37207209	      0.47773278	     -2.95566362	     -0.66537377	      3.50700893	     -3.84666792	     -2.47133544	      0.00000000	     -2.70243818	    -13.64048635	      0.00000000
      0.84000000	     -2.44921634	      1.64627012	     -0.78549324	     -0.34772467	      0.85482986	      0.26462877	      1.02147325	     -6.95229107	     -7.90482675	     52.25310829	      0.91198878	     29.41443232	      6.66538181	     11.48754552	     27.55568974	      0.48093751	     -3.20278418	     -1.65434741	      3.07927267	     -6.27402266	     -3.98903748	      0.00000000	     -1.76868550	    -13.79512497	      0.00000000
      0.85000000	     -2.33285366	      2.31036773	     -0.37473690	     -0.33662016	      0.85603017	      0.26240130	      2.58177079	     -8.19474541	     -8.37005009	     55.04185885	      0.96066166	     28.43163810	      7.72828497	     11.81126222	     27.57460863	      0.48126771	     -3.44665149	     -2.44167408	      2.68663005	     -8.35961825	     -6.06961742	      0.00000000	     -0.92221157	    -13.94601833	      0.00000000
      0.86000000	     -2.32009289	      2.79258201	     -0.02380316	     -0.32588661	      0.85729256	      0.26030654	      4.32908466	     -9.16096788	     -8.68859628	     57.64959932	      1.00617532	     27.47507625	      8.54473259	     12.08641059	     27.39579989	      0.47814691	     -3.59077060	     -2.98223677	      2.35053457	    -10.08881971	     -8.63083728	      0.00000000	     -0.14737133	    -14.11481487	      0.00000000
      0.87000000	     -2.26716890	      3.21866429	      0.35707509	     -0.31542578	      0.85873999	      0.25829377	      6.05950205	    -10.03127953	     -8.95543239	     60.12747187	      1.04942235	     26.38554102	      9.28914957	     12.40897414	     27.03648660	      0.47187571	     -3.83434551	     -3.46257407	      1.92418462	    -10.97219357	    -10.99333996	      0.00000000	      0.71508094	    -14.18215284	      0.00000000
      0.88000000	     -2.37503179	      3.47102051	      0.66046685	     -0.30533472	      0.86017613	      0.25641466	      8.06303490	    -10.63938059	     -9.08664954	     62.36334402	      1.08844569	     25.47399734	      9.78122885	     12.64186688	     26.62532104	      0.46469952	     -3.92681491	     -3.69087194	      1.55401214	    -11.92058140	    -13.83186730	      0.00000000	      1.32969331	    -14.23658539	      0.00000000
      0.89000000	     -2.42136106	      3.60995173	      1.02594345	     -0.29527525	      0.86181059	      0.25451364	      9.95943741	    -11.08914573	     -9.20894290	     64.35832567	      1.12326468	     24.41337068	     10.16731915	     12.97161363	     26.10103311	      0.45554897	     -4.05743839	     -3.77147277	      1.06688513	    -12.04874053	    -16.03405003	      0.00000000	      2.11765596	    -14.19209324	      0.00000000
      0.90000000	     -2.26372040	      3.42132210	      1.42895747	     -0.28539510	      0.86385233	      0.25279402	     11.58659990	    -11.07952740	     -9.26747938	     66.03960931	      1.15260862	     23.14963921	     10.17057101	     13.33625580	     25.61256235	      0.44702354	     -4.46531067	     -3.49180798	      0.61470738	    -11.58669430	    -17.33304035	      0.00000000	      2.78888905	    -14.11088759	      0.00000000
      0.91000000	     -2.42928912	      3.45524699	      1.92110085	     -0.27554927	      0.86542901	      0.25105837	     13.60328985	    -11.41128399	     -9.43358916	     67.61165551	      1.18004600	     22.16508116	     10.40614995	     13.75537193	     24.95374866	      0.43552507	     -4.43122530	     -3.52431368	     -0.11164036	    -10.88714267	    -18.34159569	      0.00000000	      3.59800794	    -13.84823529	      0.00000000
